<svg width="1920" height="1080" viewBox="0 0 1920 1080" xmlns="http://www.w3.org/2000/svg"><rect width="1920" height="1080" fill="#df6688"/><path d="M 0,1080 C 0,1080 0,180 0,180 C 48.35217312911615,203.50915181536945 96.7043462582323,227.0183036307389 160,229 C 223.2956537417677,230.9816963692611 301.53478809618696,211.43593729241394 357,178 C 412.46521190381304,144.56406270758606 445.1565013570196,97.23794719960523 503,116 C 560.8434986429804,134.76205280039477 643.839206475735,219.6122739091651 701,232 C 758.160793524265,244.3877260908349 789.4866727400405,184.31295716373435 840,159 C 890.5133272599595,133.68704283626565 960.2141025641026,143.13589743589742 1027,161 C 1093.7858974358974,178.86410256410258 1157.656917003549,205.1434530926759 1223,203 C 1288.343082996451,200.8565469073241 1355.158229421701,170.29029019339902 1408,147 C 1460.841770578299,123.709709806601 1499.710165309647,107.6953861337281 1559,119 C 1618.289834690353,130.3046138662719 1698.0011093397104,168.92816527168856 1769,199 C 1839.9988906602896,229.07183472831144 1902.2853973315114,250.59195277951753 1926,246 C 1949.7146026684886,241.40804722048247 1934.8573013342443,210.70402361024122 1920,180 C 1920,180 1920,1080 1920,1080 Z" fill="#3d1053" opacity="0.09999999999999999"/><path d="M 0,1080 C 0,1080 0,360 0,360 C 55.03962781605267,333.997320123745 110.07925563210534,307.99464024749005 167,327 C 223.92074436789466,346.00535975250995 282.7226052876312,410.018759133785 340,399 C 397.2773947123688,387.981240866215 453.03032321736987,301.93032321736985 514,301 C 574.9696767826301,300.06967678263015 641.1561018428895,384.2599479967356 707,394 C 772.8438981571105,403.7400520032644 838.3452694110726,339.0298847956879 894,328 C 949.6547305889274,316.9701152043121 995.4628205128204,359.62051282051283 1048,360 C 1100.5371794871796,360.37948717948717 1159.8034485376456,318.4880639222608 1221,323 C 1282.1965514623544,327.5119360777392 1345.3233853365978,378.42723149044394 1396,386 C 1446.6766146634022,393.57276850955606 1484.9030101159633,357.80301011596345 1546,351 C 1607.0969898840367,344.19698988403655 1691.0645741995481,366.36072804570216 1758,386 C 1824.9354258004519,405.63927195429784 1874.8386930858435,422.754077701228 1899,418 C 1923.1613069141565,413.245922298772 1921.5806534570784,386.622961149386 1920,360 C 1920,360 1920,1080 1920,1080 Z" fill="#3d1053" opacity="0.19999999999999998"/><path d="M 0,1080 C 0,1080 0,540 0,540 C 42.59586536089127,510.9450682305605 85.19173072178253,481.89013646112096 142,483 C 198.80826927821747,484.10986353887904 269.8289424737611,515.3845223860767 331,532 C 392.1710575262389,548.6154776139233 443.492499383173,550.571773994572 504,555 C 564.507500616827,559.428226005428 634.201059993547,566.3283816356355 688,583 C 741.798940006453,599.6716183643645 779.7032606426387,626.1146994628859 841,599 C 902.2967393573613,571.8853005371141 986.9858974358974,491.21282051282054 1046,495 C 1105.0141025641026,498.78717948717946 1138.3531496137716,587.0340184858319 1195,586 C 1251.6468503862284,584.9659815141681 1331.601504109017,494.65110554385166 1398,477 C 1464.398495890983,459.34889445614834 1517.2408339501605,514.3615593387614 1568,529 C 1618.7591660498395,543.6384406612386 1667.4351600903415,517.9026571011028 1730,507 C 1792.5648399096585,496.0973428988972 1869.018525688474,500.0278122568277 1903,508 C 1936.981474311526,515.9721877431723 1928.4907371557629,527.9860938715861 1920,540 C 1920,540 1920,1080 1920,1080 Z" fill="#3d1053" opacity="0.3"/><path d="M 0,1080 C 0,1080 0,720 0,720 C 57.41562470344853,726.4792451934939 114.83124940689706,732.9584903869878 171,747 C 227.16875059310294,761.0415096130122 282.09062707586025,782.6452836455427 332,779 C 381.90937292413975,775.3547163544573 426.8062422896619,746.4603750308413 491,731 C 555.1937577103381,715.5396249691587 638.684403765492,713.5132162310919 698,720 C 757.315596234508,726.4867837689081 792.4561426483706,741.4867600447911 842,746 C 891.5438573516294,750.5132399552089 955.4910256410255,744.5397435897436 1015,738 C 1074.5089743589745,731.4602564102564 1129.579754787527,724.3542655962345 1199,703 C 1268.420245212473,681.6457344037655 1352.189955208867,646.0431940253184 1414,652 C 1475.810044791133,657.9568059746816 1515.6604243770046,705.472958302492 1563,715 C 1610.3395756229954,724.527041697508 1665.1683472831141,696.0649727647137 1729,688 C 1792.8316527168859,679.9350272352863 1865.666186490539,692.2671506386532 1899,701 C 1932.333813509461,709.7328493613468 1926.1669067547305,714.8664246806734 1920,720 C 1920,720 1920,1080 1920,1080 Z" fill="#3d1053" opacity="0.39999999999999997"/><path d="M 0,1080 C 0,1080 0,900 0,900 C 51.39250792385509,928.970547932206 102.78501584771018,957.941095864412 165,940 C 227.21498415228982,922.058904135588 300.2524445330144,857.2061644745582 367,854 C 433.7475554669856,850.7938355254418 494.205206020232,909.234246237355 548,938 C 601.794793979768,966.765753762645 648.9267313860577,965.8568505760215 707,948 C 765.0732686139423,930.1431494239785 834.0878684355371,895.3383514585588 891,908 C 947.9121315644629,920.6616485414412 992.7217948717946,980.7897435897436 1042,960 C 1091.2782051282054,939.2102564102564 1145.0249520772838,837.502674182467 1212,836 C 1278.9750479227162,834.497325817533 1359.1783968190703,933.1995596803887 1418,962 C 1476.8216031809297,990.8004403196113 1514.2614606464347,949.6990870959784 1570,926 C 1625.7385393535653,902.3009129040216 1699.7757605951906,896.004091935698 1770,890 C 1840.2242394048094,883.995908064302 1906.6354969728027,878.2845451612291 1931,880 C 1955.3645030271973,881.7154548387709 1937.6822515135987,890.8577274193855 1920,900 C 1920,900 1920,1080 1920,1080 Z" fill="#3d1053" opacity="0.49999999999999994"/></svg>